# xmcd CD database file
#
# Track frame offsets:
#	150
#	43132
#	87666
#	143513
#	194734
#	244492
#	288682
#
# Disc length: 4033 seconds
#
# Revision: 0
# Processed by: cddbd v1.5.2PL0 Copyright (c) Steve Scherf et al.
# Submitted via: CDex 1.70beta2
#
DISCID=720fbf07
DTITLE=McCoy Tyner - Quartet
DYEAR=1900
DGENRE=Jazz
TTITLE0=Walk Spirit, Talk Spirit 
TTITLE1=Mellow Minor 
TTITLE2=Sama Layuca 
TTITLE3=Passion Dance 
TTITLE4=Search For Peace 
TTITLE5=Blues On The Corner 
TTITLE6=For All We Know 
EXTD=
EXTT0=
EXTT1=
EXTT2=
EXTT3=
EXTT4=
EXTT5=
EXTT6=
PLAYORDER=
